# AST/ASF file generated using VICON BodyLanguage
# -----------------------------------------------
:version 1.10
:name VICON
:units
  mass 1.0
  length 0.45
  angle deg
:documentation
   .ast/.asf automatically generated from VICON data using
   VICON BodyBuilder and BodyLanguage model FoxedUp or BRILLIANT.MOD
:root
   order TX TY TZ RX RY RZ
   axis XYZ
   position 0 0 0  
   orientation 0 0 0 
:bonedata
  begin
     id 1 
     name lhipjoint
     direction 0.690799 -0.707083 0.151096 
     length 2.54797 
     axis 0 0 0  XYZ
  end
  begin
     id 2 
     name lfemur
     direction 0.34202 -0.939693 0  
     length 7.21646  
     axis 0 0 20  XYZ
    dof rx ry rz
    limits (-160.0 20.0)
           (-70.0 70.0)
           (-60.0 70.0)
  end
  begin
     id 3 
     name ltibia
     direction 0.34202 -0.939693 0   
     length 8.16759   
     axis 0 0 20   XYZ
    dof rx
    limits (-10.0 170.0)
  end
  begin
     id 4 
     name lfoot
     direction 0.0487203 -0.133858 0.989802   
     length 1.93375   
     axis -90 7.62852e-016 20   XYZ
    dof rx rz
    limits (-45.0 90.0)
           (-70.0 20.0)
  end
  begin
     id 5 
     name ltoes
     direction 1.53453e-011 -4.21783e-011 1   
     length 0.979747   
     axis -90 7.62852e-016 20   XYZ
    dof rx
    limits (-90.0 20.0)
  end
  begin
     id 6 
     name rhipjoint
     direction -0.694693 -0.703425 0.150315   
     length 2.56122  
     axis 0 0 0  XYZ 
  end
  begin
     id 7 
     name rfemur
     direction -0.34202 -0.939693 0   
     length 7.36786   
     axis 0 0 -20   XYZ
    dof rx ry rz
    limits (-160.0 20.0)
           (-70.0 70.0)
           (-70.0 60.0)
  end
  begin
     id 8 
     name rtibia
     direction -0.34202 -0.939693 0   
     length 8.07288   
     axis 0 0 -20   XYZ
    dof rx
    limits (-10.0 170.0)
 end
 begin
     id 9 
     name rfoot
     direction -0.0428397 -0.117701 0.992125   
     length 1.88295  
     axis -90 -7.62852e-016 -20   XYZ
    dof rx rz
    limits (-45.0 90.0)
           (-20.0 70.0)
  end
  begin
     id 10 
     name rtoes
     direction -1.53456e-011 -4.2187e-011 1   
     length 0.955578   
     axis -90 -7.62852e-016 -20   XYZ
    dof rx
    limits (-90.0 20.0)
  end
  begin
     id 11 
     name lowerback
     direction 0.0288145 0.999398 -0.0193241   
     length 1.92149   
     axis 0 0 0   XYZ
    dof rx ry rz
    limits (-20.0 45.0)
           (-30.0 30.0)
           (-30.0 30.0)
  end
  begin
     id 12 
     name upperback
     direction 0.0233784 0.998099 0.0570278   
     length 1.90435   
     axis 0 0 0   XYZ
    dof rx ry rz
    limits (-20.0 45.0)
           (-30.0 30.0)
           (-30.0 30.0)
  end
  begin
     id 13 
     name thorax
     direction 0.0096694 0.997833 0.0650817   
     length 1.9111   
     axis 0 0 0   XYZ
    dof rx ry rz
    limits (-20.0 45.0)
           (-30.0 30.0)
           (-30.0 30.0)
  end
  begin
     id 14 
     name lowerneck
     direction 0.00516803 0.999916 0.0118722   
     length 1.74664   
     axis 0 0 0   XYZ
    dof rx ry rz
    limits (-20.0 45.0)
           (-30.0 30.0)
           (-30.0 30.0)
  end
  begin
     id 15 
     name upperneck
     direction -0.0510851 0.996117 -0.071696   
     length 1.68498   
     axis 0 0 0   XYZ
    dof rx ry rz
    limits (-20.0 45.0)
           (-30.0 30.0)
           (-30.0 30.0)
  end
  begin
     id 16
     name head
     direction -0.019188 0.999436 -0.0275702  
     length 1.83483  
     axis 0 0 0   XYZ
    dof rx ry rz
    limits (-20.0 45.0)
           (-30.0 30.0)
           (-30.0 30.0)
  end
  begin
     id 17 
     name lclavicle
     direction 0.967006 0.248456 -0.0562957  
     length 3.39395  
     axis 0 0 0   XYZ
    dof ry rz
    limits (-20.0 10.0)
           (0.0 20.0)
  end
  begin
     id 18 
     name lhumerus
     direction 1 -4.48962e-011 -5.62711e-019   
     length 5.24318   
     axis 180 -30 -90   XYZ
    dof rx ry rz
    limits (-60.0 90.0)
           (-90.0 90.0)
           (-90.0 90.0)
  end
  begin
     id 19
     name lradius
     direction 1 -4.48966e-011 7.90625e-027   
     length 2.98999   
     axis 180 -30 -90   XYZ
    dof rx
    limits (-10.0 170.0)
  end
  begin
     id 20
     name lwrist
     direction 1 -4.48959e-011 1.61068e-026   
     length 1.49499   
     axis -9.31229e-015 90 90   XYZ
    dof ry
    limits (-180.0 0.0)
 end
  begin
     id 21 
     name lhand
     direction 1 -4.49017e-011 3.22136e-026   
     length 0.726745   
     axis -2.0555e-014 90 90   XYZ
    dof rx rz
    limits (-90.0 90.0)
           (-45.0 45.0)
  end
  begin
     id 22 
     name lfingers
     direction 1 -4.4898e-011 6.44272e-026   
     length 0.58592   
     axis -4.11101e-014 90 90   XYZ
    dof rx
    limits (0.0 90.0)
  end
  begin
     id 23
     name lthumb
     direction 0.707107 -6.34922e-011 0.707107   
     length 0.841268   
     axis -90 45 2.85299e-015   XYZ
    dof rx rz
    limits (-45.0 45.0)
           (-45.0 45.0)
  end
  begin
     id 24 
     name rclavicle
     direction -0.972232 0.230238 0.0419005   
     length 3.40416  
     axis 0 0 0   XYZ 
    dof ry rz
    limits (-10.0 20.0)
           (-20.0 0.0)
  end
  begin
     id 25 
     name rhumerus
     direction -1 -4.48976e-011 2.48487e-027  
     length 5.37045   
     axis 180 30 90   XYZ
    dof rx ry rz
    limits (-90.0 60.0)
           (-90.0 90.0)
           (-90.0 90.0)
  end
  begin
     id 26 
     name rradius
     direction -1 -4.48942e-011 7.87951e-027   
     length 2.92792   
     axis 180 30 90   XYZ
    dof rx
    limits (-10.0 170.0)
  end
  begin
     id 27 
     name rwrist
     direction -1 -4.48969e-011 1.61068e-026   
     length 1.46396   
     axis -9.31229e-015 -90 -90   XYZ
    dof ry
    limits (-180.0 0.0)
  end
  begin
     id 28
     name rhand
     direction -1 -4.49043e-011 3.22136e-026   
     length 0.784497   
     axis -2.0555e-014 -90 -90   XYZ
    dof rx rz
    limits (-90.0 90.0)
           (-45.0 45.0)
  end
  begin
     id 29
     name rfingers
     direction -1 -4.48823e-011 6.44272e-026   
     length 0.632482   
     axis -4.11101e-014 -90 -90   XYZ
    dof rx
    limits (0.0 90.0)
  end
  begin
     id 30
     name rthumb
     direction -0.707107 -6.34923e-011 0.707107   
     length 0.908121   
     axis -90 -45 -2.85299e-015   XYZ
    dof rx rz
    limits (-45.0 45.0)
           (-45.0 45.0)
  end
:hierarchy
  begin
    root lhipjoint rhipjoint lowerback
    lhipjoint lfemur
    lfemur ltibia
    ltibia lfoot
    lfoot ltoes
    rhipjoint rfemur
    rfemur rtibia
    rtibia rfoot
    rfoot rtoes
    lowerback upperback
    upperback thorax
    thorax lowerneck lclavicle rclavicle
    lowerneck upperneck
    upperneck head
    lclavicle lhumerus
    lhumerus lradius
    lradius lwrist
    lwrist lhand lthumb
    lhand lfingers
    rclavicle rhumerus
    rhumerus rradius
    rradius rwrist
    rwrist rhand rthumb
    rhand rfingers
  end

#!OML:ASF E:\Style6\Style6.ASF
:FULLY-SPECIFIED
:DEGREES
1747
root 0.505833 16.364 0.485921 16.5217 -5.27572 -2.05318
lowerback 8.77598 -3.02876 3.63361
upperback -0.12093 -3.5018 3.0096
thorax -5.0781 -1.78164 1.55684
lowerneck 5.42941 2.74815 3.02027
upperneck -4.37005 3.45831 -8.36947
head -2.15518 1.91317 -3.3991
rclavicle 5.1684e-015 1.07344e-014
rhumerus -56.3139 30.9364 -91.03
rradius 112.102
rwrist -27.1558
rhand 56.4923 -3.1346
rfingers 7.12502
rthumb 73.4864 17.615
lclavicle 5.1684e-015 1.07344e-014
lhumerus -74.543 -36.5562 104.729
lradius 114.561
lwrist 41.1473
lhand 27.62 39.7698
lfingers 7.12502
lthumb 51.555 60.1361
rfemur -48.8511 -18.2711 25.3802
rtibia 58.2522
rfoot -16.8753 12.5599
rtoes 0.493335
lfemur -45.2504 16.6495 -20.184
ltibia 60.3431
lfoot -25.0879 -1.21822
ltoes -15.3435
1748
root 0.505086 16.371 0.495272 16.4355 -5.20939 -2.02509
lowerback 8.64799 -2.96943 3.69066
upperback -0.313633 -3.42248 2.89937
thorax -5.21819 -1.7473 1.40046
lowerneck 4.68862 2.65608 3.07694
upperneck -1.87577 3.48729 -8.11494
head -1.2059 1.86635 -3.24073
rclavicle 6.15239e-014 -2.90226e-014
rhumerus -56.4232 31.0473 -91.2981
rradius 111.645
rwrist -27.3275
rhand 57.0147 -3.49642
rfingers 7.12502
rthumb 73.6942 18.8807
lclavicle 6.15239e-014 -2.90226e-014
lhumerus -73.791 -37.846 104.93
lradius 114.217
lwrist 40.6598
lhand 29.478 41.2229
lfingers 7.12502
lthumb 53.237 60.5641
rfemur -48.7104 -18.4892 25.3804
rtibia 58.2155
rfoot -16.7223 12.805
rtoes 1.89888
lfemur -45.064 16.6629 -20.1809
ltibia 60.2009
lfoot -25.0062 -1.33452
ltoes -15.2411
1749
root 0.504541 16.3779 0.506221 16.3636 -5.14206 -1.96058
lowerback 8.48141 -2.9105 3.73943
upperback -0.553575 -3.34599 2.77557
thorax -5.38606 -1.71525 1.23471
lowerneck 3.8047 2.56732 3.05233
upperneck 1.02292 3.5272 -7.74232
head -0.129236 1.8167 -3.04185
rclavicle 1.59028e-015 -7.95139e-015
rhumerus -56.6189 30.9956 -91.5275
rradius 111.253
rwrist -27.1958
rhand 57.1851 -3.57724
rfingers 7.12502
rthumb 73.759 19.3396
lclavicle 1.59028e-015 -7.95139e-015
lhumerus -73.1262 -38.9595 105.105
lradius 113.938
lwrist 40.0662
lhand 30.2979 41.4911
lfingers 7.12502
lthumb 53.9746 60.3463
rfemur -48.5883 -18.6536 25.3298
rtibia 58.181
rfoot -16.6053 12.938
rtoes 3.24432
lfemur -44.9241 16.624 -20.2236
ltibia 60.1374
lfoot -24.9796 -1.22128
ltoes -15.8433
1750
root 0.501902 16.3845 0.520097 16.279 -5.15304 -1.8707
lowerback 8.29775 -2.80602 3.68709
upperback -0.784356 -3.22027 2.66484
thorax -5.52691 -1.65616 1.1308
lowerneck 2.63869 2.47556 2.98182
upperneck 4.27032 3.55996 -7.31705
head 1.09478 1.75688 -2.8452
rclavicle -1.21259e-014 7.15625e-015
rhumerus -56.863 30.8272 -91.7023
rradius 111.013
rwrist -26.8087
rhand 57.0006 -3.36337
rfingers 7.12502
rthumb 73.6888 18.9693
lclavicle -1.21259e-014 7.15625e-015
lhumerus -72.3825 -39.8503 105.11
lradius 113.745
lwrist 39.4769
lhand 30.1014 40.6295
lfingers 7.12502
lthumb 53.7981 59.6031
rfemur -48.4317 -18.6597 25.1961
rtibia 58.1572
rfoot -16.6248 12.8758
rtoes 3.44444
lfemur -44.7333 16.6185 -20.2878
ltibia 60.0532
lfoot -24.9838 -1.2441
ltoes -15.7551
1751
root 0.50106 16.3743 0.518949 16.4806 -6.51998 -2.21001
lowerback 8.20824 -2.20853 3.51048
upperback -1.11466 -2.44164 2.56045
thorax -5.81111 -1.27346 1.0241
lowerneck 1.38658 2.4123 2.94988
upperneck 7.65067 3.61226 -6.824
head 2.40624 1.71351 -2.66972
rclavicle 3.24019e-014 1.78906e-014
rhumerus -57.2426 30.5646 -91.9173
rradius 110.929
rwrist -26.1467
rhand 56.7335 -3.22083
rfingers 7.12502
rthumb 73.584 18.2748
lclavicle 3.24019e-014 1.78906e-014
lhumerus -71.773 -40.5084 104.988
lradius 113.626
lwrist 39.1182
lhand 30.1637 40.7965
lfingers 7.12502
lthumb 53.8541 59.7327
rfemur -48.723 -17.354 25.2617
rtibia 58.1438
rfoot -16.5007 12.7668
rtoes 2.53717
lfemur -44.8613 17.8551 -20.352
ltibia 60.1548
lfoot -25.0445 -1.17674
ltoes -15.4804
1752
root 0.49333 16.3927 0.551469 15.9457 -5.2078 -1.71103
lowerback 8.19328 -2.60421 3.50839
upperback -1.33874 -2.96934 2.4198
thorax -6.05228 -1.53798 0.957461
lowerneck 0.368797 2.38272 2.9547
upperneck 10.9468 3.68451 -6.383
head 3.71541 1.69682 -2.54193
rclavicle -1.05356e-014 2.14687e-014
rhumerus -57.826 30.3148 -92.2127
rradius 110.987
rwrist -25.4161
rhand 56.3246 -3.35843
rfingers 7.12502
rthumb 73.4169 16.8775
lclavicle -1.05356e-014 2.14687e-014
lhumerus -71.6206 -40.8895 104.97
lradius 113.549
lwrist 38.8042
lhand 30.2668 41.054
lfingers 7.12502
lthumb 53.9467 59.928
rfemur -47.8795 -18.3834 24.8051
rtibia 58.1677
rfoot -17.1163 12.378
rtoes 2.50487
lfemur -44.2435 16.5942 -20.3388
ltibia 60.0117
lfoot -24.99 -1.20393
ltoes -15.871
1753
root 0.484823 16.3821 0.558489 16.0489 -6.21844 -1.93447
lowerback 8.0755 -2.17485 3.27279
upperback -1.75222 -2.41661 2.3754
thorax -6.40611 -1.26383 0.976193
lowerneck -0.648775 2.37623 2.86891
upperneck 14.6768 3.82464 -6.19926
head 4.664 1.67709 -2.22676
rclavicle -1.05356e-014 9.14409e-015
rhumerus -58.5237 30.0971 -92.4374
rradius 111.175
rwrist -24.878
rhand 55.8226 -3.2
rfingers 7.12502
rthumb 73.2006 15.525
lclavicle -1.05356e-014 9.14409e-015
lhumerus -71.7546 -41.0704 105.075
lradius 113.492
lwrist 38.5009
lhand 30.1131 40.7156
lfingers 7.12502
lthumb 53.8086 59.6822
rfemur -47.9938 -17.2063 24.7614
rtibia 58.1994
rfoot -16.9806 12.3549
rtoes 3.85002
lfemur -44.2409 17.4875 -20.3518
ltibia 60.0678
lfoot -25.0296 -0.971837
ltoes -16.1358
1754
root 0.481621 16.3884 0.58097 15.3165 -6.45351 -1.74246
lowerback 8.63205 -2.07488 3.02144
upperback -1.89347 -2.28419 2.26955
thorax -6.86655 -1.19311 1.01583
lowerneck -2.15997 2.41885 2.77685
upperneck 18.3907 4.0034 -5.91278
head 6.0782 1.68925 -2.10498
rclavicle 1.92821e-014 -1.31198e-014
rhumerus -59.0556 29.905 -92.4647
rradius 111.418
rwrist -24.5146
rhand 55.1214 -3.08091
rfingers 7.12502
rthumb 72.8789 13.6007
lclavicle 1.92821e-014 -1.31198e-014
lhumerus -71.8345 -41.145 105.046
lradius 113.473
lwrist 38.3512
lhand 30.0913 40.4787
lfingers 7.12502
lthumb 53.789 59.4584
rfemur -47.0801 -16.9122 24.177
rtibia 58.2441
rfoot -17.2338 12.1181
rtoes 3.4338
lfemur -43.1514 17.5885 -20.3267
ltibia 59.9107
lfoot -25.1238 -0.929413
ltoes -15.9477
1755
root 0.474447 16.3925 0.609815 14.8865 -6.47913 -1.62257
lowerback 8.75314 -2.04358 2.87574
upperback -2.0479 -2.25133 2.22441
thorax -7.09584 -1.17341 1.05539
lowerneck -3.97593 2.46862 2.60837
upperneck 22.1944 4.18261 -5.56879
head 7.62793 1.69661 -1.95288
rclavicle -1.61016e-014 1.19271e-014
rhumerus -59.5123 29.6877 -92.3346
rradius 111.702
rwrist -24.2931
rhand 54.3589 -3.36006
rfingers 7.12502
rthumb 72.5047 11.1893
lclavicle -1.61016e-014 1.19271e-014
lhumerus -71.955 -41.0591 104.879
lradius 113.565
lwrist 38.3809
lhand 30.0295 40.3975
lfingers 7.12502
lthumb 53.7335 59.4141
rfemur -46.4591 -16.6493 23.8024
rtibia 58.2795
rfoot -17.5077 11.7964
rtoes 2.92165
lfemur -42.435 17.5034 -20.245
ltibia 59.8151
lfoot -25.2561 -0.680914
ltoes -16.5362
1756
root 0.46313 16.3985 0.645529 14.5892 -6.065 -1.46025
lowerback 8.58235 -2.18726 2.9056
upperback -2.22619 -2.44987 2.11523
thorax -7.19534 -1.27591 0.952412
lowerneck -5.79121 2.51315 2.46144
upperneck 25.8681 4.31026 -5.10833
head 9.21155 1.69768 -1.77035
rclavicle -1.20265e-014 3.37934e-014
rhumerus -60.0628 29.2968 -92.2765
rradius 112.02
rwrist -24.2017
rhand 53.3759 -3.91369
rfingers 7.12502
rthumb 71.9872 8.02487
lclavicle -1.20265e-014 3.37934e-014
lhumerus -72.2124 -40.8165 104.45
lradius 113.792
lwrist 38.6073
lhand 29.7906 40.4282
lfingers 7.12502
lthumb 53.5186 59.5866
rfemur -45.9044 -16.6766 23.5159
rtibia 58.3138
rfoot -17.8349 11.3713
rtoes 2.64787
lfemur -41.8855 17.0212 -20.1237
ltibia 59.6513
lfoot -25.2924 -0.591805
ltoes -16.9379
1757
root 0.452382 16.4009 0.672398 14.149 -6.30861 -1.40211
lowerback 8.69727 -2.14976 2.85469
upperback -2.29638 -2.41198 1.91601
thorax -7.34221 -1.26051 0.773192
lowerneck -7.4291 2.59152 2.46542
upperneck 28.9464 4.43594 -4.71181
head 10.6477 1.72446 -1.63035
rclavicle -4.47266e-015 9.14409e-015
rhumerus -60.5016 28.881 -92.2332
rradius 112.314
rwrist -24.3878
rhand 52.1878 -4.32812
rfingers 7.12502
rthumb 71.3134 4.65929
lclavicle -4.47266e-015 9.14409e-015
lhumerus -72.3736 -40.5018 103.646
lradius 114.072
lwrist 39.0364
lhand 29.2948 40.2255
lfingers 7.12502
lthumb 53.0719 59.6723
rfemur -45.2565 -16.1549 23.1632
rtibia 58.3278
rfoot -17.9477 11.2021
rtoes 3.44983
lfemur -41.1502 17.1965 -20.0094
ltibia 59.5405
lfoot -25.4081 -0.58741
ltoes -16.8467
1758
root 0.443166 16.4029 0.700404 13.7233 -6.28081 -1.39743
lowerback 8.78776 -2.17431 2.77557
upperback -2.33383 -2.44977 1.90439
thorax -7.43168 -1.27606 0.816187
lowerneck -8.89688 2.67321 2.46298
upperneck 31.4735 4.61111 -4.57603
head 11.9363 1.75876 -1.57183
rclavicle -5.68524e-014 2.42517e-014
rhumerus -60.8152 28.5227 -91.7549
rradius 112.616
rwrist -24.7743
rhand 51.2976 -4.27356
rfingers 7.12502
rthumb 70.777 2.64496
lclavicle -5.68524e-014 2.42517e-014
lhumerus -72.4638 -39.9998 102.997
lradius 114.375
lwrist 39.5883
lhand 28.6307 40.2468
lfingers 7.12502
lthumb 52.4718 60.0679
rfemur -44.5994 -15.9165 22.9524
rtibia 58.3469
rfoot -18.1536 11.023
rtoes 3.60653
lfemur -40.4671 17.2019 -19.7931
ltibia 59.4502
lfoot -25.5398 -0.561801
ltoes -17.1711
1759
root 0.434223 16.402 0.725426 13.5426 -6.79801 -1.54296
lowerback 8.94169 -1.96575 2.48424
upperback -2.60002 -2.18172 2.05094
thorax -7.78532 -1.12983 1.10767
lowerneck -9.88104 2.68784 2.33814
upperneck 33.3933 4.74092 -4.57759
head 12.946 1.7572 -1.54871
rclavicle -1.74931e-014 -1.59028e-014
rhumerus -61.4817 28.1589 -91.1021
rradius 112.924
rwrist -25.2896
rhand 49.3672 -3.26711
rfingers 7.12502
rthumb 69.532 -0.439446
lclavicle -1.74931e-014 -1.59028e-014
lhumerus -73.0255 -39.2709 102.887
lradius 114.648
lwrist 39.9875
lhand 27.865 40.0718
lfingers 7.12502
lthumb 51.7777 60.3086
rfemur -44.293 -15.2745 22.8869
rtibia 58.3701
rfoot -18.2072 10.9722
rtoes 3.63242
lfemur -40.0323 17.723 -19.6151
ltibia 59.4193
lfoot -25.6592 -0.679319
ltoes -16.6563
1760
root 0.422838 16.401 0.749956 13.2137 -7.1781 -1.5318
lowerback 9.30596 -1.81546 2.17471
upperback -2.89969 -1.99441 2.0835
thorax -8.30587 -1.02294 1.31018
lowerneck -10.3268 2.66976 2.23533
upperneck 34.5001 4.78206 -4.55535
head 13.5242 1.74112 -1.52837
rclavicle 2.62893e-014 1.47101e-014
rhumerus -62.3766 27.6037 -90.5749
rradius 113.199
rwrist -25.7295
rhand 46.7518 -2.44224
rfingers 7.12502
rthumb 67.6954 -4.37578
lclavicle 2.62893e-014 1.47101e-014
lhumerus -73.8405 -38.4759 102.753
lradius 114.978
lwrist 40.147
lhand 26.9419 39.6291
lfingers 7.12502
lthumb 50.9377 60.3452
rfemur -43.8848 -14.7813 22.67
rtibia 58.4172
rfoot -18.3358 10.7564
rtoes 2.9367
lfemur -39.484 18.0828 -19.532
ltibia 59.3768
lfoot -25.7169 -0.62787
ltoes -16.9399
